<mxfile host="Electron" modified="2023-06-04T13:32:38.850Z" agent="Mozilla/5.0 (Windows NT 10.0; Win64; x64) AppleWebKit/537.36 (KHTML, like Gecko) draw.io/21.2.8 Chrome/112.0.5615.165 Electron/24.2.0 Safari/537.36" etag="e4IYm9ULbS7dvtcz8M0L" version="21.2.8" type="device">
  <diagram id="C5RBs43oDa-KdzZeNtuy" name="Page-1">
    <mxGraphModel dx="2396" dy="1183" grid="1" gridSize="10" guides="1" tooltips="1" connect="1" arrows="1" fold="1" page="1" pageScale="1" pageWidth="827" pageHeight="1169" math="0" shadow="0">
      <root>
        <mxCell id="WIyWlLk6GJQsqaUBKTNV-0" />
        <mxCell id="WIyWlLk6GJQsqaUBKTNV-1" parent="WIyWlLk6GJQsqaUBKTNV-0" />
        <mxCell id="iv2NXaq5prbsmtH-ulXJ-39" value="" style="rounded=0;whiteSpace=wrap;html=1;" vertex="1" parent="WIyWlLk6GJQsqaUBKTNV-1">
          <mxGeometry x="461" y="425" width="780" height="470" as="geometry" />
        </mxCell>
        <mxCell id="WIyWlLk6GJQsqaUBKTNV-2" value="" style="rounded=0;html=1;jettySize=auto;orthogonalLoop=1;fontSize=11;endArrow=block;endFill=0;endSize=8;strokeWidth=1;shadow=0;labelBackgroundColor=none;edgeStyle=orthogonalEdgeStyle;strokeColor=#7EA6E0;" parent="WIyWlLk6GJQsqaUBKTNV-1" source="WIyWlLk6GJQsqaUBKTNV-3" target="WIyWlLk6GJQsqaUBKTNV-6" edge="1">
          <mxGeometry relative="1" as="geometry" />
        </mxCell>
        <mxCell id="WIyWlLk6GJQsqaUBKTNV-3" value="主播端" style="rounded=1;whiteSpace=wrap;html=1;fontSize=12;glass=0;strokeWidth=1;shadow=0;strokeColor=#7EA6E0;" parent="WIyWlLk6GJQsqaUBKTNV-1" vertex="1">
          <mxGeometry x="160" y="80" width="120" height="40" as="geometry" />
        </mxCell>
        <mxCell id="WIyWlLk6GJQsqaUBKTNV-4" value="Yes" style="rounded=0;html=1;jettySize=auto;orthogonalLoop=1;fontSize=11;endArrow=block;endFill=0;endSize=8;strokeWidth=1;shadow=0;labelBackgroundColor=none;edgeStyle=orthogonalEdgeStyle;strokeColor=#7EA6E0;" parent="WIyWlLk6GJQsqaUBKTNV-1" source="WIyWlLk6GJQsqaUBKTNV-6" target="WIyWlLk6GJQsqaUBKTNV-10" edge="1">
          <mxGeometry y="20" relative="1" as="geometry">
            <mxPoint as="offset" />
          </mxGeometry>
        </mxCell>
        <mxCell id="WIyWlLk6GJQsqaUBKTNV-5" value="No" style="edgeStyle=orthogonalEdgeStyle;rounded=0;html=1;jettySize=auto;orthogonalLoop=1;fontSize=11;endArrow=block;endFill=0;endSize=8;strokeWidth=1;shadow=0;labelBackgroundColor=none;strokeColor=#7EA6E0;" parent="WIyWlLk6GJQsqaUBKTNV-1" source="WIyWlLk6GJQsqaUBKTNV-6" target="WIyWlLk6GJQsqaUBKTNV-7" edge="1">
          <mxGeometry y="10" relative="1" as="geometry">
            <mxPoint as="offset" />
          </mxGeometry>
        </mxCell>
        <mxCell id="WIyWlLk6GJQsqaUBKTNV-6" value="打开游戏" style="rhombus;whiteSpace=wrap;html=1;shadow=0;fontFamily=Helvetica;fontSize=12;align=center;strokeWidth=1;spacing=6;spacingTop=-4;strokeColor=#7EA6E0;" parent="WIyWlLk6GJQsqaUBKTNV-1" vertex="1">
          <mxGeometry x="170" y="170" width="100" height="80" as="geometry" />
        </mxCell>
        <mxCell id="WIyWlLk6GJQsqaUBKTNV-7" value="结束" style="rounded=1;whiteSpace=wrap;html=1;fontSize=12;glass=0;strokeWidth=1;shadow=0;strokeColor=#7EA6E0;" parent="WIyWlLk6GJQsqaUBKTNV-1" vertex="1">
          <mxGeometry x="320" y="190" width="120" height="40" as="geometry" />
        </mxCell>
        <mxCell id="WIyWlLk6GJQsqaUBKTNV-8" value="No" style="rounded=0;html=1;jettySize=auto;orthogonalLoop=1;fontSize=11;endArrow=block;endFill=0;endSize=8;strokeWidth=1;shadow=0;labelBackgroundColor=none;edgeStyle=orthogonalEdgeStyle;strokeColor=#7EA6E0;exitX=1;exitY=0.5;exitDx=0;exitDy=0;entryX=0;entryY=0.5;entryDx=0;entryDy=0;" parent="WIyWlLk6GJQsqaUBKTNV-1" source="WIyWlLk6GJQsqaUBKTNV-10" target="WIyWlLk6GJQsqaUBKTNV-12" edge="1">
          <mxGeometry y="20" relative="1" as="geometry">
            <mxPoint as="offset" />
          </mxGeometry>
        </mxCell>
        <mxCell id="WIyWlLk6GJQsqaUBKTNV-10" value="启动界面" style="rhombus;whiteSpace=wrap;html=1;shadow=0;fontFamily=Helvetica;fontSize=12;align=center;strokeWidth=1;spacing=6;spacingTop=-4;strokeColor=#7EA6E0;" parent="WIyWlLk6GJQsqaUBKTNV-1" vertex="1">
          <mxGeometry x="170" y="290" width="100" height="80" as="geometry" />
        </mxCell>
        <mxCell id="iv2NXaq5prbsmtH-ulXJ-14" value="" style="edgeStyle=orthogonalEdgeStyle;rounded=0;orthogonalLoop=1;jettySize=auto;html=1;" edge="1" parent="WIyWlLk6GJQsqaUBKTNV-1" source="WIyWlLk6GJQsqaUBKTNV-11" target="iv2NXaq5prbsmtH-ulXJ-13">
          <mxGeometry relative="1" as="geometry" />
        </mxCell>
        <mxCell id="WIyWlLk6GJQsqaUBKTNV-11" value="输入队伍个数" style="rounded=1;whiteSpace=wrap;html=1;fontSize=12;glass=0;strokeWidth=1;shadow=0;strokeColor=#7EA6E0;" parent="WIyWlLk6GJQsqaUBKTNV-1" vertex="1">
          <mxGeometry x="160" y="430" width="120" height="40" as="geometry" />
        </mxCell>
        <mxCell id="WIyWlLk6GJQsqaUBKTNV-12" value="结束" style="rounded=1;whiteSpace=wrap;html=1;fontSize=12;glass=0;strokeWidth=1;shadow=0;strokeColor=#7EA6E0;" parent="WIyWlLk6GJQsqaUBKTNV-1" vertex="1">
          <mxGeometry x="320" y="310" width="120" height="40" as="geometry" />
        </mxCell>
        <mxCell id="iv2NXaq5prbsmtH-ulXJ-0" value="" style="rounded=0;html=1;jettySize=auto;orthogonalLoop=1;fontSize=11;endArrow=block;endFill=0;endSize=8;strokeWidth=1;shadow=0;labelBackgroundColor=none;edgeStyle=orthogonalEdgeStyle;" edge="1" parent="WIyWlLk6GJQsqaUBKTNV-1" source="iv2NXaq5prbsmtH-ulXJ-1" target="iv2NXaq5prbsmtH-ulXJ-4">
          <mxGeometry relative="1" as="geometry" />
        </mxCell>
        <mxCell id="iv2NXaq5prbsmtH-ulXJ-1" value="看播端" style="rounded=1;whiteSpace=wrap;html=1;fontSize=12;glass=0;strokeWidth=1;shadow=0;" vertex="1" parent="WIyWlLk6GJQsqaUBKTNV-1">
          <mxGeometry x="521" y="340" width="120" height="40" as="geometry" />
        </mxCell>
        <mxCell id="iv2NXaq5prbsmtH-ulXJ-2" value="Yes" style="rounded=0;html=1;jettySize=auto;orthogonalLoop=1;fontSize=11;endArrow=block;endFill=0;endSize=8;strokeWidth=1;shadow=0;labelBackgroundColor=none;edgeStyle=orthogonalEdgeStyle;entryX=0.5;entryY=0;entryDx=0;entryDy=0;" edge="1" parent="WIyWlLk6GJQsqaUBKTNV-1" source="iv2NXaq5prbsmtH-ulXJ-8" target="iv2NXaq5prbsmtH-ulXJ-9">
          <mxGeometry y="20" relative="1" as="geometry">
            <mxPoint as="offset" />
            <mxPoint x="661" y="765" as="sourcePoint" />
          </mxGeometry>
        </mxCell>
        <mxCell id="iv2NXaq5prbsmtH-ulXJ-3" value="No" style="edgeStyle=orthogonalEdgeStyle;rounded=0;html=1;jettySize=auto;orthogonalLoop=1;fontSize=11;endArrow=block;endFill=0;endSize=8;strokeWidth=1;shadow=0;labelBackgroundColor=none;entryX=0;entryY=0.5;entryDx=0;entryDy=0;" edge="1" parent="WIyWlLk6GJQsqaUBKTNV-1" source="iv2NXaq5prbsmtH-ulXJ-4" target="iv2NXaq5prbsmtH-ulXJ-17">
          <mxGeometry y="10" relative="1" as="geometry">
            <mxPoint as="offset" />
            <mxPoint x="651" y="585" as="targetPoint" />
          </mxGeometry>
        </mxCell>
        <mxCell id="iv2NXaq5prbsmtH-ulXJ-4" value="弹幕" style="rhombus;whiteSpace=wrap;html=1;shadow=0;fontFamily=Helvetica;fontSize=12;align=center;strokeWidth=1;spacing=6;spacingTop=-4;" vertex="1" parent="WIyWlLk6GJQsqaUBKTNV-1">
          <mxGeometry x="531" y="545" width="100" height="80" as="geometry" />
        </mxCell>
        <mxCell id="iv2NXaq5prbsmtH-ulXJ-8" value="弹幕=队伍数字" style="rhombus;whiteSpace=wrap;html=1;shadow=0;fontFamily=Helvetica;fontSize=12;align=center;strokeWidth=1;spacing=6;spacingTop=-4;" vertex="1" parent="WIyWlLk6GJQsqaUBKTNV-1">
          <mxGeometry x="531" y="665" width="100" height="80" as="geometry" />
        </mxCell>
        <mxCell id="iv2NXaq5prbsmtH-ulXJ-9" value="加入队伍生成形象" style="rounded=1;whiteSpace=wrap;html=1;fontSize=12;glass=0;strokeWidth=1;shadow=0;" vertex="1" parent="WIyWlLk6GJQsqaUBKTNV-1">
          <mxGeometry x="521" y="805" width="120" height="40" as="geometry" />
        </mxCell>
        <mxCell id="iv2NXaq5prbsmtH-ulXJ-10" value="无反应" style="rounded=1;whiteSpace=wrap;html=1;fontSize=12;glass=0;strokeWidth=1;shadow=0;" vertex="1" parent="WIyWlLk6GJQsqaUBKTNV-1">
          <mxGeometry x="681" y="685" width="100" height="40" as="geometry" />
        </mxCell>
        <mxCell id="iv2NXaq5prbsmtH-ulXJ-16" value="" style="edgeStyle=orthogonalEdgeStyle;rounded=0;orthogonalLoop=1;jettySize=auto;html=1;" edge="1" parent="WIyWlLk6GJQsqaUBKTNV-1" source="iv2NXaq5prbsmtH-ulXJ-13" target="iv2NXaq5prbsmtH-ulXJ-15">
          <mxGeometry relative="1" as="geometry" />
        </mxCell>
        <mxCell id="iv2NXaq5prbsmtH-ulXJ-13" value="输入启动时每组人数" style="rounded=1;whiteSpace=wrap;html=1;fontSize=12;glass=0;strokeWidth=1;shadow=0;strokeColor=#7EA6E0;" vertex="1" parent="WIyWlLk6GJQsqaUBKTNV-1">
          <mxGeometry x="160" y="520" width="120" height="40" as="geometry" />
        </mxCell>
        <mxCell id="iv2NXaq5prbsmtH-ulXJ-44" value="" style="edgeStyle=orthogonalEdgeStyle;rounded=0;orthogonalLoop=1;jettySize=auto;html=1;" edge="1" parent="WIyWlLk6GJQsqaUBKTNV-1" source="iv2NXaq5prbsmtH-ulXJ-15" target="iv2NXaq5prbsmtH-ulXJ-43">
          <mxGeometry relative="1" as="geometry" />
        </mxCell>
        <mxCell id="iv2NXaq5prbsmtH-ulXJ-15" value="等待看播端加入&lt;br&gt;等待x分钟" style="rounded=1;whiteSpace=wrap;html=1;fontSize=12;glass=0;strokeWidth=1;shadow=0;strokeColor=#7EA6E0;" vertex="1" parent="WIyWlLk6GJQsqaUBKTNV-1">
          <mxGeometry x="160" y="640" width="120" height="40" as="geometry" />
        </mxCell>
        <mxCell id="iv2NXaq5prbsmtH-ulXJ-17" value="礼物" style="rhombus;whiteSpace=wrap;html=1;shadow=0;fontFamily=Helvetica;fontSize=12;align=center;strokeWidth=1;spacing=6;spacingTop=-4;" vertex="1" parent="WIyWlLk6GJQsqaUBKTNV-1">
          <mxGeometry x="681" y="545" width="100" height="80" as="geometry" />
        </mxCell>
        <mxCell id="iv2NXaq5prbsmtH-ulXJ-20" value="Yes" style="edgeStyle=orthogonalEdgeStyle;rounded=0;html=1;jettySize=auto;orthogonalLoop=1;fontSize=11;endArrow=block;endFill=0;endSize=8;strokeWidth=1;shadow=0;labelBackgroundColor=none;strokeColor=#7EA6E0;exitX=0.5;exitY=1;exitDx=0;exitDy=0;entryX=0.5;entryY=0;entryDx=0;entryDy=0;" edge="1" parent="WIyWlLk6GJQsqaUBKTNV-1" source="WIyWlLk6GJQsqaUBKTNV-10" target="WIyWlLk6GJQsqaUBKTNV-11">
          <mxGeometry x="-0.2" y="-10" relative="1" as="geometry">
            <mxPoint as="offset" />
            <mxPoint x="280" y="340" as="sourcePoint" />
            <mxPoint x="330" y="340" as="targetPoint" />
            <Array as="points">
              <mxPoint x="220" y="380" />
              <mxPoint x="220" y="380" />
            </Array>
          </mxGeometry>
        </mxCell>
        <mxCell id="iv2NXaq5prbsmtH-ulXJ-23" value="No" style="edgeStyle=orthogonalEdgeStyle;rounded=0;html=1;jettySize=auto;orthogonalLoop=1;fontSize=11;endArrow=block;endFill=0;endSize=8;strokeWidth=1;shadow=0;labelBackgroundColor=none;exitX=1;exitY=0.5;exitDx=0;exitDy=0;" edge="1" parent="WIyWlLk6GJQsqaUBKTNV-1" source="iv2NXaq5prbsmtH-ulXJ-8">
          <mxGeometry x="-0.208" y="20" relative="1" as="geometry">
            <mxPoint as="offset" />
            <mxPoint x="641" y="595" as="sourcePoint" />
            <mxPoint x="681" y="705" as="targetPoint" />
          </mxGeometry>
        </mxCell>
        <mxCell id="iv2NXaq5prbsmtH-ulXJ-24" value="Yes" style="rounded=0;html=1;jettySize=auto;orthogonalLoop=1;fontSize=11;endArrow=block;endFill=0;endSize=8;strokeWidth=1;shadow=0;labelBackgroundColor=none;edgeStyle=orthogonalEdgeStyle;exitX=0.5;exitY=1;exitDx=0;exitDy=0;entryX=0.5;entryY=0;entryDx=0;entryDy=0;" edge="1" parent="WIyWlLk6GJQsqaUBKTNV-1" source="iv2NXaq5prbsmtH-ulXJ-4" target="iv2NXaq5prbsmtH-ulXJ-8">
          <mxGeometry y="20" relative="1" as="geometry">
            <mxPoint as="offset" />
            <mxPoint x="591" y="755" as="sourcePoint" />
            <mxPoint x="611" y="655" as="targetPoint" />
          </mxGeometry>
        </mxCell>
        <mxCell id="iv2NXaq5prbsmtH-ulXJ-28" value="No" style="edgeStyle=orthogonalEdgeStyle;rounded=0;html=1;jettySize=auto;orthogonalLoop=1;fontSize=11;endArrow=block;endFill=0;endSize=8;strokeWidth=1;shadow=0;labelBackgroundColor=none;entryX=0.5;entryY=0;entryDx=0;entryDy=0;exitX=0.5;exitY=1;exitDx=0;exitDy=0;" edge="1" parent="WIyWlLk6GJQsqaUBKTNV-1" source="iv2NXaq5prbsmtH-ulXJ-17" target="iv2NXaq5prbsmtH-ulXJ-10">
          <mxGeometry y="10" relative="1" as="geometry">
            <mxPoint as="offset" />
            <mxPoint x="641" y="595" as="sourcePoint" />
            <mxPoint x="691" y="595" as="targetPoint" />
          </mxGeometry>
        </mxCell>
        <mxCell id="iv2NXaq5prbsmtH-ulXJ-30" value="Yes" style="rounded=0;html=1;jettySize=auto;orthogonalLoop=1;fontSize=11;endArrow=block;endFill=0;endSize=8;strokeWidth=1;shadow=0;labelBackgroundColor=none;edgeStyle=orthogonalEdgeStyle;strokeColor=#7EA6E0;" edge="1" parent="WIyWlLk6GJQsqaUBKTNV-1">
          <mxGeometry y="20" relative="1" as="geometry">
            <mxPoint as="offset" />
            <mxPoint x="680" y="260" as="sourcePoint" />
            <mxPoint x="680" y="340" as="targetPoint" />
          </mxGeometry>
        </mxCell>
        <mxCell id="iv2NXaq5prbsmtH-ulXJ-31" value="Yes" style="rounded=0;html=1;jettySize=auto;orthogonalLoop=1;fontSize=11;endArrow=block;endFill=0;endSize=8;strokeWidth=1;shadow=0;labelBackgroundColor=none;edgeStyle=orthogonalEdgeStyle;strokeColor=#7EA6E0;exitX=1;exitY=0.5;exitDx=0;exitDy=0;entryX=0;entryY=0.5;entryDx=0;entryDy=0;" edge="1" parent="WIyWlLk6GJQsqaUBKTNV-1" source="iv2NXaq5prbsmtH-ulXJ-17" target="iv2NXaq5prbsmtH-ulXJ-32">
          <mxGeometry y="20" relative="1" as="geometry">
            <mxPoint as="offset" />
            <mxPoint x="701" y="185" as="sourcePoint" />
            <mxPoint x="831" y="585" as="targetPoint" />
          </mxGeometry>
        </mxCell>
        <mxCell id="iv2NXaq5prbsmtH-ulXJ-32" value="玩家是否已参队" style="rhombus;whiteSpace=wrap;html=1;shadow=0;fontFamily=Helvetica;fontSize=12;align=center;strokeWidth=1;spacing=6;spacingTop=-4;" vertex="1" parent="WIyWlLk6GJQsqaUBKTNV-1">
          <mxGeometry x="861" y="545" width="100" height="80" as="geometry" />
        </mxCell>
        <mxCell id="iv2NXaq5prbsmtH-ulXJ-34" value="根据礼物增加队伍攻击或防守技能" style="rounded=1;whiteSpace=wrap;html=1;fontSize=12;glass=0;strokeWidth=1;shadow=0;strokeColor=#7EA6E0;" vertex="1" parent="WIyWlLk6GJQsqaUBKTNV-1">
          <mxGeometry x="851" y="685" width="120" height="40" as="geometry" />
        </mxCell>
        <mxCell id="iv2NXaq5prbsmtH-ulXJ-35" value="Yes" style="rounded=0;html=1;jettySize=auto;orthogonalLoop=1;fontSize=11;endArrow=block;endFill=0;endSize=8;strokeWidth=1;shadow=0;labelBackgroundColor=none;edgeStyle=orthogonalEdgeStyle;strokeColor=#7EA6E0;exitX=0.5;exitY=1;exitDx=0;exitDy=0;entryX=0.5;entryY=0;entryDx=0;entryDy=0;" edge="1" parent="WIyWlLk6GJQsqaUBKTNV-1" source="iv2NXaq5prbsmtH-ulXJ-32" target="iv2NXaq5prbsmtH-ulXJ-34">
          <mxGeometry y="20" relative="1" as="geometry">
            <mxPoint as="offset" />
            <mxPoint x="701" y="185" as="sourcePoint" />
            <mxPoint x="701" y="265" as="targetPoint" />
          </mxGeometry>
        </mxCell>
        <mxCell id="iv2NXaq5prbsmtH-ulXJ-36" value="No" style="edgeStyle=orthogonalEdgeStyle;rounded=0;html=1;jettySize=auto;orthogonalLoop=1;fontSize=11;endArrow=block;endFill=0;endSize=8;strokeWidth=1;shadow=0;labelBackgroundColor=none;" edge="1" parent="WIyWlLk6GJQsqaUBKTNV-1">
          <mxGeometry y="10" relative="1" as="geometry">
            <mxPoint as="offset" />
            <mxPoint x="750" y="390" as="sourcePoint" />
            <mxPoint x="840" y="390" as="targetPoint" />
          </mxGeometry>
        </mxCell>
        <mxCell id="iv2NXaq5prbsmtH-ulXJ-37" value="No" style="edgeStyle=orthogonalEdgeStyle;rounded=0;html=1;jettySize=auto;orthogonalLoop=1;fontSize=11;endArrow=block;endFill=0;endSize=8;strokeWidth=1;shadow=0;labelBackgroundColor=none;exitX=1;exitY=0.5;exitDx=0;exitDy=0;entryX=0;entryY=0.5;entryDx=0;entryDy=0;" edge="1" parent="WIyWlLk6GJQsqaUBKTNV-1" source="iv2NXaq5prbsmtH-ulXJ-32" target="iv2NXaq5prbsmtH-ulXJ-38">
          <mxGeometry x="-0.1429" y="10" relative="1" as="geometry">
            <mxPoint as="offset" />
            <mxPoint x="771" y="315" as="sourcePoint" />
            <mxPoint x="1021" y="585" as="targetPoint" />
          </mxGeometry>
        </mxCell>
        <mxCell id="iv2NXaq5prbsmtH-ulXJ-38" value="根据礼物价值增加队伍人数" style="rounded=1;whiteSpace=wrap;html=1;fontSize=12;glass=0;strokeWidth=1;shadow=0;strokeColor=#7EA6E0;" vertex="1" parent="WIyWlLk6GJQsqaUBKTNV-1">
          <mxGeometry x="1031" y="565" width="120" height="40" as="geometry" />
        </mxCell>
        <mxCell id="iv2NXaq5prbsmtH-ulXJ-41" value="" style="endArrow=none;dashed=1;html=1;rounded=0;exitX=1;exitY=0.5;exitDx=0;exitDy=0;entryX=0;entryY=0.5;entryDx=0;entryDy=0;" edge="1" parent="WIyWlLk6GJQsqaUBKTNV-1" source="iv2NXaq5prbsmtH-ulXJ-15" target="iv2NXaq5prbsmtH-ulXJ-39">
          <mxGeometry width="50" height="50" relative="1" as="geometry">
            <mxPoint x="350" y="700" as="sourcePoint" />
            <mxPoint x="400" y="650" as="targetPoint" />
          </mxGeometry>
        </mxCell>
        <mxCell id="iv2NXaq5prbsmtH-ulXJ-46" value="" style="edgeStyle=orthogonalEdgeStyle;rounded=0;orthogonalLoop=1;jettySize=auto;html=1;" edge="1" parent="WIyWlLk6GJQsqaUBKTNV-1" source="iv2NXaq5prbsmtH-ulXJ-43" target="iv2NXaq5prbsmtH-ulXJ-45">
          <mxGeometry relative="1" as="geometry" />
        </mxCell>
        <mxCell id="iv2NXaq5prbsmtH-ulXJ-43" value="显示开始界面" style="rounded=1;whiteSpace=wrap;html=1;fontSize=12;glass=0;strokeWidth=1;shadow=0;strokeColor=#7EA6E0;" vertex="1" parent="WIyWlLk6GJQsqaUBKTNV-1">
          <mxGeometry x="160" y="920" width="120" height="40" as="geometry" />
        </mxCell>
        <mxCell id="iv2NXaq5prbsmtH-ulXJ-113" value="" style="edgeStyle=orthogonalEdgeStyle;rounded=0;orthogonalLoop=1;jettySize=auto;html=1;" edge="1" parent="WIyWlLk6GJQsqaUBKTNV-1" source="iv2NXaq5prbsmtH-ulXJ-45" target="iv2NXaq5prbsmtH-ulXJ-112">
          <mxGeometry relative="1" as="geometry" />
        </mxCell>
        <mxCell id="iv2NXaq5prbsmtH-ulXJ-45" value="弹幕投票当前回合" style="rounded=1;whiteSpace=wrap;html=1;fontSize=12;glass=0;strokeWidth=1;shadow=0;strokeColor=#7EA6E0;" vertex="1" parent="WIyWlLk6GJQsqaUBKTNV-1">
          <mxGeometry x="160" y="1370" width="120" height="40" as="geometry" />
        </mxCell>
        <mxCell id="iv2NXaq5prbsmtH-ulXJ-47" value="" style="rounded=0;whiteSpace=wrap;html=1;" vertex="1" parent="WIyWlLk6GJQsqaUBKTNV-1">
          <mxGeometry x="461" y="940" width="780" height="600" as="geometry" />
        </mxCell>
        <mxCell id="iv2NXaq5prbsmtH-ulXJ-48" value="" style="rounded=0;html=1;jettySize=auto;orthogonalLoop=1;fontSize=11;endArrow=block;endFill=0;endSize=8;strokeWidth=1;shadow=0;labelBackgroundColor=none;edgeStyle=orthogonalEdgeStyle;exitX=0.5;exitY=1;exitDx=0;exitDy=0;" edge="1" parent="WIyWlLk6GJQsqaUBKTNV-1" source="iv2NXaq5prbsmtH-ulXJ-9" target="iv2NXaq5prbsmtH-ulXJ-52">
          <mxGeometry relative="1" as="geometry">
            <mxPoint x="581" y="1010" as="sourcePoint" />
          </mxGeometry>
        </mxCell>
        <mxCell id="iv2NXaq5prbsmtH-ulXJ-51" value="No" style="edgeStyle=orthogonalEdgeStyle;rounded=0;html=1;jettySize=auto;orthogonalLoop=1;fontSize=11;endArrow=block;endFill=0;endSize=8;strokeWidth=1;shadow=0;labelBackgroundColor=none;entryX=0;entryY=0.5;entryDx=0;entryDy=0;" edge="1" parent="WIyWlLk6GJQsqaUBKTNV-1" source="iv2NXaq5prbsmtH-ulXJ-52" target="iv2NXaq5prbsmtH-ulXJ-56">
          <mxGeometry y="10" relative="1" as="geometry">
            <mxPoint as="offset" />
            <mxPoint x="651" y="1100" as="targetPoint" />
          </mxGeometry>
        </mxCell>
        <mxCell id="iv2NXaq5prbsmtH-ulXJ-52" value="弹幕" style="rhombus;whiteSpace=wrap;html=1;shadow=0;fontFamily=Helvetica;fontSize=12;align=center;strokeWidth=1;spacing=6;spacingTop=-4;" vertex="1" parent="WIyWlLk6GJQsqaUBKTNV-1">
          <mxGeometry x="531" y="1060" width="100" height="80" as="geometry" />
        </mxCell>
        <mxCell id="iv2NXaq5prbsmtH-ulXJ-53" value="弹幕=队伍数字" style="rhombus;whiteSpace=wrap;html=1;shadow=0;fontFamily=Helvetica;fontSize=12;align=center;strokeWidth=1;spacing=6;spacingTop=-4;" vertex="1" parent="WIyWlLk6GJQsqaUBKTNV-1">
          <mxGeometry x="531" y="1180" width="100" height="80" as="geometry" />
        </mxCell>
        <mxCell id="iv2NXaq5prbsmtH-ulXJ-54" value="无反应" style="rounded=1;whiteSpace=wrap;html=1;fontSize=12;glass=0;strokeWidth=1;shadow=0;" vertex="1" parent="WIyWlLk6GJQsqaUBKTNV-1">
          <mxGeometry x="671" y="1200" width="120" height="40" as="geometry" />
        </mxCell>
        <mxCell id="iv2NXaq5prbsmtH-ulXJ-56" value="礼物" style="rhombus;whiteSpace=wrap;html=1;shadow=0;fontFamily=Helvetica;fontSize=12;align=center;strokeWidth=1;spacing=6;spacingTop=-4;" vertex="1" parent="WIyWlLk6GJQsqaUBKTNV-1">
          <mxGeometry x="681" y="1060" width="100" height="80" as="geometry" />
        </mxCell>
        <mxCell id="iv2NXaq5prbsmtH-ulXJ-57" value="No" style="edgeStyle=orthogonalEdgeStyle;rounded=0;html=1;jettySize=auto;orthogonalLoop=1;fontSize=11;endArrow=block;endFill=0;endSize=8;strokeWidth=1;shadow=0;labelBackgroundColor=none;exitX=1;exitY=0.5;exitDx=0;exitDy=0;entryX=0;entryY=0.5;entryDx=0;entryDy=0;" edge="1" parent="WIyWlLk6GJQsqaUBKTNV-1" source="iv2NXaq5prbsmtH-ulXJ-53" target="iv2NXaq5prbsmtH-ulXJ-54">
          <mxGeometry x="-0.208" y="20" relative="1" as="geometry">
            <mxPoint as="offset" />
            <mxPoint x="641" y="1110" as="sourcePoint" />
            <mxPoint x="681" y="1220" as="targetPoint" />
          </mxGeometry>
        </mxCell>
        <mxCell id="iv2NXaq5prbsmtH-ulXJ-58" value="Yes" style="rounded=0;html=1;jettySize=auto;orthogonalLoop=1;fontSize=11;endArrow=block;endFill=0;endSize=8;strokeWidth=1;shadow=0;labelBackgroundColor=none;edgeStyle=orthogonalEdgeStyle;exitX=0.5;exitY=1;exitDx=0;exitDy=0;entryX=0.5;entryY=0;entryDx=0;entryDy=0;" edge="1" parent="WIyWlLk6GJQsqaUBKTNV-1" source="iv2NXaq5prbsmtH-ulXJ-52" target="iv2NXaq5prbsmtH-ulXJ-53">
          <mxGeometry y="20" relative="1" as="geometry">
            <mxPoint as="offset" />
            <mxPoint x="591" y="1270" as="sourcePoint" />
            <mxPoint x="611" y="1170" as="targetPoint" />
          </mxGeometry>
        </mxCell>
        <mxCell id="iv2NXaq5prbsmtH-ulXJ-59" value="No" style="edgeStyle=orthogonalEdgeStyle;rounded=0;html=1;jettySize=auto;orthogonalLoop=1;fontSize=11;endArrow=block;endFill=0;endSize=8;strokeWidth=1;shadow=0;labelBackgroundColor=none;exitX=0.5;exitY=1;exitDx=0;exitDy=0;" edge="1" parent="WIyWlLk6GJQsqaUBKTNV-1" source="iv2NXaq5prbsmtH-ulXJ-56" target="iv2NXaq5prbsmtH-ulXJ-54">
          <mxGeometry y="19" relative="1" as="geometry">
            <mxPoint as="offset" />
            <mxPoint x="641" y="1110" as="sourcePoint" />
            <mxPoint x="731" y="1200" as="targetPoint" />
          </mxGeometry>
        </mxCell>
        <mxCell id="iv2NXaq5prbsmtH-ulXJ-60" value="Yes" style="rounded=0;html=1;jettySize=auto;orthogonalLoop=1;fontSize=11;endArrow=block;endFill=0;endSize=8;strokeWidth=1;shadow=0;labelBackgroundColor=none;edgeStyle=orthogonalEdgeStyle;strokeColor=#7EA6E0;exitX=1;exitY=0.5;exitDx=0;exitDy=0;entryX=0;entryY=0.5;entryDx=0;entryDy=0;" edge="1" parent="WIyWlLk6GJQsqaUBKTNV-1" source="iv2NXaq5prbsmtH-ulXJ-56" target="iv2NXaq5prbsmtH-ulXJ-61">
          <mxGeometry y="20" relative="1" as="geometry">
            <mxPoint as="offset" />
            <mxPoint x="701" y="700" as="sourcePoint" />
            <mxPoint x="831" y="1100" as="targetPoint" />
          </mxGeometry>
        </mxCell>
        <mxCell id="iv2NXaq5prbsmtH-ulXJ-61" value="玩家是否已参队" style="rhombus;whiteSpace=wrap;html=1;shadow=0;fontFamily=Helvetica;fontSize=12;align=center;strokeWidth=1;spacing=6;spacingTop=-4;" vertex="1" parent="WIyWlLk6GJQsqaUBKTNV-1">
          <mxGeometry x="861" y="1060" width="100" height="80" as="geometry" />
        </mxCell>
        <mxCell id="iv2NXaq5prbsmtH-ulXJ-62" value="根据礼物增加队伍攻击或防守技能" style="rounded=1;whiteSpace=wrap;html=1;fontSize=12;glass=0;strokeWidth=1;shadow=0;strokeColor=#7EA6E0;" vertex="1" parent="WIyWlLk6GJQsqaUBKTNV-1">
          <mxGeometry x="851" y="1200" width="120" height="40" as="geometry" />
        </mxCell>
        <mxCell id="iv2NXaq5prbsmtH-ulXJ-63" value="Yes" style="rounded=0;html=1;jettySize=auto;orthogonalLoop=1;fontSize=11;endArrow=block;endFill=0;endSize=8;strokeWidth=1;shadow=0;labelBackgroundColor=none;edgeStyle=orthogonalEdgeStyle;strokeColor=#7EA6E0;exitX=0.5;exitY=1;exitDx=0;exitDy=0;entryX=0.5;entryY=0;entryDx=0;entryDy=0;" edge="1" parent="WIyWlLk6GJQsqaUBKTNV-1" source="iv2NXaq5prbsmtH-ulXJ-61" target="iv2NXaq5prbsmtH-ulXJ-62">
          <mxGeometry y="20" relative="1" as="geometry">
            <mxPoint as="offset" />
            <mxPoint x="701" y="700" as="sourcePoint" />
            <mxPoint x="701" y="780" as="targetPoint" />
          </mxGeometry>
        </mxCell>
        <mxCell id="iv2NXaq5prbsmtH-ulXJ-64" value="No" style="edgeStyle=orthogonalEdgeStyle;rounded=0;html=1;jettySize=auto;orthogonalLoop=1;fontSize=11;endArrow=block;endFill=0;endSize=8;strokeWidth=1;shadow=0;labelBackgroundColor=none;exitX=1;exitY=0.5;exitDx=0;exitDy=0;entryX=0;entryY=0.5;entryDx=0;entryDy=0;" edge="1" parent="WIyWlLk6GJQsqaUBKTNV-1" source="iv2NXaq5prbsmtH-ulXJ-61" target="iv2NXaq5prbsmtH-ulXJ-65">
          <mxGeometry x="-0.1429" y="10" relative="1" as="geometry">
            <mxPoint as="offset" />
            <mxPoint x="771" y="830" as="sourcePoint" />
            <mxPoint x="1021" y="1100" as="targetPoint" />
          </mxGeometry>
        </mxCell>
        <mxCell id="iv2NXaq5prbsmtH-ulXJ-65" value="根据礼物价值增加下个回合队伍人数" style="rounded=1;whiteSpace=wrap;html=1;fontSize=12;glass=0;strokeWidth=1;shadow=0;strokeColor=#7EA6E0;" vertex="1" parent="WIyWlLk6GJQsqaUBKTNV-1">
          <mxGeometry x="1031" y="1080" width="120" height="40" as="geometry" />
        </mxCell>
        <mxCell id="iv2NXaq5prbsmtH-ulXJ-84" value="" style="rounded=0;whiteSpace=wrap;html=1;" vertex="1" parent="WIyWlLk6GJQsqaUBKTNV-1">
          <mxGeometry x="461" y="1685" width="780" height="470" as="geometry" />
        </mxCell>
        <mxCell id="iv2NXaq5prbsmtH-ulXJ-85" value="" style="rounded=0;html=1;jettySize=auto;orthogonalLoop=1;fontSize=11;endArrow=block;endFill=0;endSize=8;strokeWidth=1;shadow=0;labelBackgroundColor=none;edgeStyle=orthogonalEdgeStyle;exitX=0.5;exitY=1;exitDx=0;exitDy=0;" edge="1" parent="WIyWlLk6GJQsqaUBKTNV-1" source="iv2NXaq5prbsmtH-ulXJ-109" target="iv2NXaq5prbsmtH-ulXJ-89">
          <mxGeometry relative="1" as="geometry">
            <mxPoint x="581" y="1755" as="sourcePoint" />
          </mxGeometry>
        </mxCell>
        <mxCell id="iv2NXaq5prbsmtH-ulXJ-87" value="Yes" style="rounded=0;html=1;jettySize=auto;orthogonalLoop=1;fontSize=11;endArrow=block;endFill=0;endSize=8;strokeWidth=1;shadow=0;labelBackgroundColor=none;edgeStyle=orthogonalEdgeStyle;entryX=0.5;entryY=0;entryDx=0;entryDy=0;" edge="1" parent="WIyWlLk6GJQsqaUBKTNV-1" source="iv2NXaq5prbsmtH-ulXJ-90" target="iv2NXaq5prbsmtH-ulXJ-91">
          <mxGeometry y="20" relative="1" as="geometry">
            <mxPoint as="offset" />
            <mxPoint x="661" y="2025" as="sourcePoint" />
          </mxGeometry>
        </mxCell>
        <mxCell id="iv2NXaq5prbsmtH-ulXJ-88" value="No" style="edgeStyle=orthogonalEdgeStyle;rounded=0;html=1;jettySize=auto;orthogonalLoop=1;fontSize=11;endArrow=block;endFill=0;endSize=8;strokeWidth=1;shadow=0;labelBackgroundColor=none;entryX=0;entryY=0.5;entryDx=0;entryDy=0;" edge="1" parent="WIyWlLk6GJQsqaUBKTNV-1" source="iv2NXaq5prbsmtH-ulXJ-89" target="iv2NXaq5prbsmtH-ulXJ-93">
          <mxGeometry y="10" relative="1" as="geometry">
            <mxPoint as="offset" />
            <mxPoint x="651" y="1845" as="targetPoint" />
          </mxGeometry>
        </mxCell>
        <mxCell id="iv2NXaq5prbsmtH-ulXJ-89" value="弹幕" style="rhombus;whiteSpace=wrap;html=1;shadow=0;fontFamily=Helvetica;fontSize=12;align=center;strokeWidth=1;spacing=6;spacingTop=-4;" vertex="1" parent="WIyWlLk6GJQsqaUBKTNV-1">
          <mxGeometry x="531" y="1805" width="100" height="80" as="geometry" />
        </mxCell>
        <mxCell id="iv2NXaq5prbsmtH-ulXJ-90" value="玩家是否已参队" style="rhombus;whiteSpace=wrap;html=1;shadow=0;fontFamily=Helvetica;fontSize=12;align=center;strokeWidth=1;spacing=6;spacingTop=-4;" vertex="1" parent="WIyWlLk6GJQsqaUBKTNV-1">
          <mxGeometry x="531" y="1925" width="100" height="80" as="geometry" />
        </mxCell>
        <mxCell id="iv2NXaq5prbsmtH-ulXJ-91" value="释放不同招数" style="rounded=1;whiteSpace=wrap;html=1;fontSize=12;glass=0;strokeWidth=1;shadow=0;" vertex="1" parent="WIyWlLk6GJQsqaUBKTNV-1">
          <mxGeometry x="521" y="2065" width="120" height="40" as="geometry" />
        </mxCell>
        <mxCell id="iv2NXaq5prbsmtH-ulXJ-92" value="无反应" style="rounded=1;whiteSpace=wrap;html=1;fontSize=12;glass=0;strokeWidth=1;shadow=0;" vertex="1" parent="WIyWlLk6GJQsqaUBKTNV-1">
          <mxGeometry x="681" y="1945" width="100" height="40" as="geometry" />
        </mxCell>
        <mxCell id="iv2NXaq5prbsmtH-ulXJ-93" value="礼物" style="rhombus;whiteSpace=wrap;html=1;shadow=0;fontFamily=Helvetica;fontSize=12;align=center;strokeWidth=1;spacing=6;spacingTop=-4;" vertex="1" parent="WIyWlLk6GJQsqaUBKTNV-1">
          <mxGeometry x="681" y="1805" width="100" height="80" as="geometry" />
        </mxCell>
        <mxCell id="iv2NXaq5prbsmtH-ulXJ-94" value="No" style="edgeStyle=orthogonalEdgeStyle;rounded=0;html=1;jettySize=auto;orthogonalLoop=1;fontSize=11;endArrow=block;endFill=0;endSize=8;strokeWidth=1;shadow=0;labelBackgroundColor=none;exitX=1;exitY=0.5;exitDx=0;exitDy=0;" edge="1" parent="WIyWlLk6GJQsqaUBKTNV-1" source="iv2NXaq5prbsmtH-ulXJ-90">
          <mxGeometry x="-0.208" y="20" relative="1" as="geometry">
            <mxPoint as="offset" />
            <mxPoint x="641" y="1855" as="sourcePoint" />
            <mxPoint x="681" y="1965" as="targetPoint" />
          </mxGeometry>
        </mxCell>
        <mxCell id="iv2NXaq5prbsmtH-ulXJ-95" value="Yes" style="rounded=0;html=1;jettySize=auto;orthogonalLoop=1;fontSize=11;endArrow=block;endFill=0;endSize=8;strokeWidth=1;shadow=0;labelBackgroundColor=none;edgeStyle=orthogonalEdgeStyle;exitX=0.5;exitY=1;exitDx=0;exitDy=0;entryX=0.5;entryY=0;entryDx=0;entryDy=0;" edge="1" parent="WIyWlLk6GJQsqaUBKTNV-1" source="iv2NXaq5prbsmtH-ulXJ-89" target="iv2NXaq5prbsmtH-ulXJ-90">
          <mxGeometry y="20" relative="1" as="geometry">
            <mxPoint as="offset" />
            <mxPoint x="591" y="2015" as="sourcePoint" />
            <mxPoint x="611" y="1915" as="targetPoint" />
          </mxGeometry>
        </mxCell>
        <mxCell id="iv2NXaq5prbsmtH-ulXJ-96" value="No" style="edgeStyle=orthogonalEdgeStyle;rounded=0;html=1;jettySize=auto;orthogonalLoop=1;fontSize=11;endArrow=block;endFill=0;endSize=8;strokeWidth=1;shadow=0;labelBackgroundColor=none;entryX=0.5;entryY=0;entryDx=0;entryDy=0;exitX=0.5;exitY=1;exitDx=0;exitDy=0;" edge="1" parent="WIyWlLk6GJQsqaUBKTNV-1" source="iv2NXaq5prbsmtH-ulXJ-93" target="iv2NXaq5prbsmtH-ulXJ-92">
          <mxGeometry y="10" relative="1" as="geometry">
            <mxPoint as="offset" />
            <mxPoint x="641" y="1855" as="sourcePoint" />
            <mxPoint x="691" y="1855" as="targetPoint" />
          </mxGeometry>
        </mxCell>
        <mxCell id="iv2NXaq5prbsmtH-ulXJ-97" value="Yes" style="rounded=0;html=1;jettySize=auto;orthogonalLoop=1;fontSize=11;endArrow=block;endFill=0;endSize=8;strokeWidth=1;shadow=0;labelBackgroundColor=none;edgeStyle=orthogonalEdgeStyle;strokeColor=#7EA6E0;exitX=1;exitY=0.5;exitDx=0;exitDy=0;entryX=0;entryY=0.5;entryDx=0;entryDy=0;" edge="1" parent="WIyWlLk6GJQsqaUBKTNV-1" source="iv2NXaq5prbsmtH-ulXJ-93" target="iv2NXaq5prbsmtH-ulXJ-98">
          <mxGeometry y="20" relative="1" as="geometry">
            <mxPoint as="offset" />
            <mxPoint x="701" y="1445" as="sourcePoint" />
            <mxPoint x="831" y="1845" as="targetPoint" />
          </mxGeometry>
        </mxCell>
        <mxCell id="iv2NXaq5prbsmtH-ulXJ-98" value="玩家是否已参队" style="rhombus;whiteSpace=wrap;html=1;shadow=0;fontFamily=Helvetica;fontSize=12;align=center;strokeWidth=1;spacing=6;spacingTop=-4;" vertex="1" parent="WIyWlLk6GJQsqaUBKTNV-1">
          <mxGeometry x="861" y="1805" width="100" height="80" as="geometry" />
        </mxCell>
        <mxCell id="iv2NXaq5prbsmtH-ulXJ-99" value="添加对应技能buff，保持x秒" style="rounded=1;whiteSpace=wrap;html=1;fontSize=12;glass=0;strokeWidth=1;shadow=0;strokeColor=#7EA6E0;" vertex="1" parent="WIyWlLk6GJQsqaUBKTNV-1">
          <mxGeometry x="851" y="1945" width="120" height="40" as="geometry" />
        </mxCell>
        <mxCell id="iv2NXaq5prbsmtH-ulXJ-100" value="Yes" style="rounded=0;html=1;jettySize=auto;orthogonalLoop=1;fontSize=11;endArrow=block;endFill=0;endSize=8;strokeWidth=1;shadow=0;labelBackgroundColor=none;edgeStyle=orthogonalEdgeStyle;strokeColor=#7EA6E0;exitX=0.5;exitY=1;exitDx=0;exitDy=0;entryX=0.5;entryY=0;entryDx=0;entryDy=0;" edge="1" parent="WIyWlLk6GJQsqaUBKTNV-1" source="iv2NXaq5prbsmtH-ulXJ-98" target="iv2NXaq5prbsmtH-ulXJ-99">
          <mxGeometry y="20" relative="1" as="geometry">
            <mxPoint as="offset" />
            <mxPoint x="701" y="1445" as="sourcePoint" />
            <mxPoint x="701" y="1525" as="targetPoint" />
          </mxGeometry>
        </mxCell>
        <mxCell id="iv2NXaq5prbsmtH-ulXJ-101" value="No" style="edgeStyle=orthogonalEdgeStyle;rounded=0;html=1;jettySize=auto;orthogonalLoop=1;fontSize=11;endArrow=block;endFill=0;endSize=8;strokeWidth=1;shadow=0;labelBackgroundColor=none;exitX=1;exitY=0.5;exitDx=0;exitDy=0;entryX=0;entryY=0.5;entryDx=0;entryDy=0;" edge="1" parent="WIyWlLk6GJQsqaUBKTNV-1" source="iv2NXaq5prbsmtH-ulXJ-98" target="iv2NXaq5prbsmtH-ulXJ-102">
          <mxGeometry x="-0.1429" y="10" relative="1" as="geometry">
            <mxPoint as="offset" />
            <mxPoint x="771" y="1575" as="sourcePoint" />
            <mxPoint x="1021" y="1845" as="targetPoint" />
          </mxGeometry>
        </mxCell>
        <mxCell id="iv2NXaq5prbsmtH-ulXJ-102" value="？？？？？" style="rounded=1;whiteSpace=wrap;html=1;fontSize=12;glass=0;strokeWidth=1;shadow=0;strokeColor=#7EA6E0;" vertex="1" parent="WIyWlLk6GJQsqaUBKTNV-1">
          <mxGeometry x="1031" y="1825" width="120" height="40" as="geometry" />
        </mxCell>
        <mxCell id="iv2NXaq5prbsmtH-ulXJ-103" value="" style="endArrow=none;dashed=1;html=1;rounded=0;exitX=1;exitY=0.5;exitDx=0;exitDy=0;entryX=0;entryY=0.75;entryDx=0;entryDy=0;" edge="1" parent="WIyWlLk6GJQsqaUBKTNV-1" source="iv2NXaq5prbsmtH-ulXJ-45" target="iv2NXaq5prbsmtH-ulXJ-47">
          <mxGeometry width="50" height="50" relative="1" as="geometry">
            <mxPoint x="600" y="1310" as="sourcePoint" />
            <mxPoint x="450" y="1180" as="targetPoint" />
          </mxGeometry>
        </mxCell>
        <mxCell id="iv2NXaq5prbsmtH-ulXJ-104" value="玩家是否已参队" style="rhombus;whiteSpace=wrap;html=1;shadow=0;fontFamily=Helvetica;fontSize=12;align=center;strokeWidth=1;spacing=6;spacingTop=-4;" vertex="1" parent="WIyWlLk6GJQsqaUBKTNV-1">
          <mxGeometry x="530" y="1290" width="100" height="80" as="geometry" />
        </mxCell>
        <mxCell id="iv2NXaq5prbsmtH-ulXJ-107" value="Yes" style="rounded=0;html=1;jettySize=auto;orthogonalLoop=1;fontSize=11;endArrow=block;endFill=0;endSize=8;strokeWidth=1;shadow=0;labelBackgroundColor=none;edgeStyle=orthogonalEdgeStyle;strokeColor=#7EA6E0;exitX=0.5;exitY=1;exitDx=0;exitDy=0;entryX=0.5;entryY=0;entryDx=0;entryDy=0;" edge="1" parent="WIyWlLk6GJQsqaUBKTNV-1" source="iv2NXaq5prbsmtH-ulXJ-53" target="iv2NXaq5prbsmtH-ulXJ-104">
          <mxGeometry y="20" relative="1" as="geometry">
            <mxPoint as="offset" />
            <mxPoint x="690" y="270" as="sourcePoint" />
            <mxPoint x="690" y="350" as="targetPoint" />
          </mxGeometry>
        </mxCell>
        <mxCell id="iv2NXaq5prbsmtH-ulXJ-108" value="No" style="edgeStyle=orthogonalEdgeStyle;rounded=0;html=1;jettySize=auto;orthogonalLoop=1;fontSize=11;endArrow=block;endFill=0;endSize=8;strokeWidth=1;shadow=0;labelBackgroundColor=none;exitX=1;exitY=0.5;exitDx=0;exitDy=0;" edge="1" parent="WIyWlLk6GJQsqaUBKTNV-1" source="iv2NXaq5prbsmtH-ulXJ-104" target="iv2NXaq5prbsmtH-ulXJ-54">
          <mxGeometry x="-0.208" y="20" relative="1" as="geometry">
            <mxPoint as="offset" />
            <mxPoint x="641" y="1230" as="sourcePoint" />
            <mxPoint x="681" y="1230" as="targetPoint" />
          </mxGeometry>
        </mxCell>
        <mxCell id="iv2NXaq5prbsmtH-ulXJ-109" value="根据数字当前回合进攻队伍/防守" style="rounded=1;whiteSpace=wrap;html=1;fontSize=12;glass=0;strokeWidth=1;shadow=0;" vertex="1" parent="WIyWlLk6GJQsqaUBKTNV-1">
          <mxGeometry x="520" y="1420" width="120" height="40" as="geometry" />
        </mxCell>
        <mxCell id="iv2NXaq5prbsmtH-ulXJ-110" value="Yes" style="rounded=0;html=1;jettySize=auto;orthogonalLoop=1;fontSize=11;endArrow=block;endFill=0;endSize=8;strokeWidth=1;shadow=0;labelBackgroundColor=none;edgeStyle=orthogonalEdgeStyle;strokeColor=#7EA6E0;exitX=0.5;exitY=1;exitDx=0;exitDy=0;" edge="1" parent="WIyWlLk6GJQsqaUBKTNV-1" source="iv2NXaq5prbsmtH-ulXJ-104" target="iv2NXaq5prbsmtH-ulXJ-109">
          <mxGeometry y="20" relative="1" as="geometry">
            <mxPoint as="offset" />
            <mxPoint x="591" y="1270" as="sourcePoint" />
            <mxPoint x="590" y="1300" as="targetPoint" />
          </mxGeometry>
        </mxCell>
        <mxCell id="iv2NXaq5prbsmtH-ulXJ-117" value="" style="edgeStyle=orthogonalEdgeStyle;rounded=0;orthogonalLoop=1;jettySize=auto;html=1;" edge="1" parent="WIyWlLk6GJQsqaUBKTNV-1" source="iv2NXaq5prbsmtH-ulXJ-112" target="iv2NXaq5prbsmtH-ulXJ-116">
          <mxGeometry relative="1" as="geometry" />
        </mxCell>
        <mxCell id="iv2NXaq5prbsmtH-ulXJ-112" value="x分钟&lt;br&gt;选择结束" style="rounded=1;whiteSpace=wrap;html=1;fontSize=12;glass=0;strokeWidth=1;shadow=0;strokeColor=#7EA6E0;" vertex="1" parent="WIyWlLk6GJQsqaUBKTNV-1">
          <mxGeometry x="160" y="1600" width="120" height="40" as="geometry" />
        </mxCell>
        <mxCell id="iv2NXaq5prbsmtH-ulXJ-120" value="" style="edgeStyle=orthogonalEdgeStyle;rounded=0;orthogonalLoop=1;jettySize=auto;html=1;" edge="1" parent="WIyWlLk6GJQsqaUBKTNV-1" source="iv2NXaq5prbsmtH-ulXJ-116" target="iv2NXaq5prbsmtH-ulXJ-119">
          <mxGeometry relative="1" as="geometry" />
        </mxCell>
        <mxCell id="iv2NXaq5prbsmtH-ulXJ-157" style="edgeStyle=orthogonalEdgeStyle;rounded=0;orthogonalLoop=1;jettySize=auto;html=1;entryX=1;entryY=0.5;entryDx=0;entryDy=0;" edge="1" parent="WIyWlLk6GJQsqaUBKTNV-1" source="iv2NXaq5prbsmtH-ulXJ-116" target="iv2NXaq5prbsmtH-ulXJ-156">
          <mxGeometry relative="1" as="geometry" />
        </mxCell>
        <mxCell id="iv2NXaq5prbsmtH-ulXJ-116" value="战斗开始" style="rounded=1;whiteSpace=wrap;html=1;fontSize=12;glass=0;strokeWidth=1;shadow=0;strokeColor=#7EA6E0;" vertex="1" parent="WIyWlLk6GJQsqaUBKTNV-1">
          <mxGeometry x="160" y="1900" width="120" height="40" as="geometry" />
        </mxCell>
        <mxCell id="iv2NXaq5prbsmtH-ulXJ-118" value="" style="endArrow=none;dashed=1;html=1;rounded=0;exitX=1;exitY=0.5;exitDx=0;exitDy=0;entryX=0;entryY=0.5;entryDx=0;entryDy=0;" edge="1" parent="WIyWlLk6GJQsqaUBKTNV-1" source="iv2NXaq5prbsmtH-ulXJ-116" target="iv2NXaq5prbsmtH-ulXJ-84">
          <mxGeometry width="50" height="50" relative="1" as="geometry">
            <mxPoint x="630" y="2020" as="sourcePoint" />
            <mxPoint x="680" y="1970" as="targetPoint" />
          </mxGeometry>
        </mxCell>
        <mxCell id="iv2NXaq5prbsmtH-ulXJ-127" style="edgeStyle=orthogonalEdgeStyle;rounded=0;orthogonalLoop=1;jettySize=auto;html=1;entryX=0.5;entryY=0;entryDx=0;entryDy=0;" edge="1" parent="WIyWlLk6GJQsqaUBKTNV-1" source="iv2NXaq5prbsmtH-ulXJ-119" target="iv2NXaq5prbsmtH-ulXJ-125">
          <mxGeometry relative="1" as="geometry" />
        </mxCell>
        <mxCell id="iv2NXaq5prbsmtH-ulXJ-119" value="一队伍被击败结束" style="rounded=1;whiteSpace=wrap;html=1;fontSize=12;glass=0;strokeWidth=1;shadow=0;strokeColor=#7EA6E0;" vertex="1" parent="WIyWlLk6GJQsqaUBKTNV-1">
          <mxGeometry x="160" y="2270" width="120" height="40" as="geometry" />
        </mxCell>
        <mxCell id="iv2NXaq5prbsmtH-ulXJ-125" value="是否只剩下一队" style="rhombus;whiteSpace=wrap;html=1;shadow=0;fontFamily=Helvetica;fontSize=12;align=center;strokeWidth=1;spacing=6;spacingTop=-4;" vertex="1" parent="WIyWlLk6GJQsqaUBKTNV-1">
          <mxGeometry x="170" y="2400" width="100" height="80" as="geometry" />
        </mxCell>
        <mxCell id="iv2NXaq5prbsmtH-ulXJ-126" value="Yes" style="rounded=0;html=1;jettySize=auto;orthogonalLoop=1;fontSize=11;endArrow=block;endFill=0;endSize=8;strokeWidth=1;shadow=0;labelBackgroundColor=none;edgeStyle=orthogonalEdgeStyle;exitX=0.5;exitY=1;exitDx=0;exitDy=0;entryX=0.5;entryY=0;entryDx=0;entryDy=0;" edge="1" parent="WIyWlLk6GJQsqaUBKTNV-1" target="iv2NXaq5prbsmtH-ulXJ-128" source="iv2NXaq5prbsmtH-ulXJ-125">
          <mxGeometry x="0.0085" y="20" relative="1" as="geometry">
            <mxPoint as="offset" />
            <mxPoint x="350" y="2550" as="sourcePoint" />
            <mxPoint x="420" y="2440" as="targetPoint" />
          </mxGeometry>
        </mxCell>
        <mxCell id="iv2NXaq5prbsmtH-ulXJ-128" value="战斗结束&lt;br&gt;显示胜利" style="rounded=1;whiteSpace=wrap;html=1;fontSize=12;glass=0;strokeWidth=1;shadow=0;strokeColor=#7EA6E0;" vertex="1" parent="WIyWlLk6GJQsqaUBKTNV-1">
          <mxGeometry x="160" y="2620" width="120" height="40" as="geometry" />
        </mxCell>
        <mxCell id="iv2NXaq5prbsmtH-ulXJ-130" value="No" style="edgeStyle=orthogonalEdgeStyle;rounded=0;html=1;jettySize=auto;orthogonalLoop=1;fontSize=11;endArrow=block;endFill=0;endSize=8;strokeWidth=1;shadow=0;labelBackgroundColor=none;exitX=0;exitY=0.5;exitDx=0;exitDy=0;entryX=1;entryY=0.5;entryDx=0;entryDy=0;" edge="1" parent="WIyWlLk6GJQsqaUBKTNV-1" source="iv2NXaq5prbsmtH-ulXJ-125" target="iv2NXaq5prbsmtH-ulXJ-131">
          <mxGeometry x="-0.208" y="20" relative="1" as="geometry">
            <mxPoint as="offset" />
            <mxPoint x="641" y="1975" as="sourcePoint" />
            <mxPoint x="220" y="2580" as="targetPoint" />
          </mxGeometry>
        </mxCell>
        <mxCell id="iv2NXaq5prbsmtH-ulXJ-152" value="" style="edgeStyle=orthogonalEdgeStyle;rounded=0;orthogonalLoop=1;jettySize=auto;html=1;exitX=0;exitY=0.5;exitDx=0;exitDy=0;" edge="1" parent="WIyWlLk6GJQsqaUBKTNV-1" source="iv2NXaq5prbsmtH-ulXJ-131" target="iv2NXaq5prbsmtH-ulXJ-151">
          <mxGeometry relative="1" as="geometry" />
        </mxCell>
        <mxCell id="iv2NXaq5prbsmtH-ulXJ-131" value="中长休息" style="rounded=1;whiteSpace=wrap;html=1;fontSize=12;glass=0;strokeWidth=1;shadow=0;strokeColor=#7EA6E0;" vertex="1" parent="WIyWlLk6GJQsqaUBKTNV-1">
          <mxGeometry x="-45.5" y="2420" width="120" height="40" as="geometry" />
        </mxCell>
        <mxCell id="iv2NXaq5prbsmtH-ulXJ-153" style="edgeStyle=orthogonalEdgeStyle;rounded=0;orthogonalLoop=1;jettySize=auto;html=1;entryX=0;entryY=0.5;entryDx=0;entryDy=0;exitX=0.5;exitY=0;exitDx=0;exitDy=0;" edge="1" parent="WIyWlLk6GJQsqaUBKTNV-1" source="iv2NXaq5prbsmtH-ulXJ-151" target="iv2NXaq5prbsmtH-ulXJ-15">
          <mxGeometry relative="1" as="geometry">
            <mxPoint x="89.99999999999977" y="660.7692307692307" as="targetPoint" />
          </mxGeometry>
        </mxCell>
        <mxCell id="iv2NXaq5prbsmtH-ulXJ-151" value="1. 被击杀的玩家血量会增加给击杀玩家&lt;br&gt;&lt;div style=&quot;&quot;&gt;2. 被击杀的玩家作为道具，随机显示在玩家的招数文字提示中&lt;/div&gt;" style="rounded=1;whiteSpace=wrap;html=1;fontSize=12;glass=0;strokeWidth=1;shadow=0;strokeColor=#7EA6E0;align=left;" vertex="1" parent="WIyWlLk6GJQsqaUBKTNV-1">
          <mxGeometry x="-710" y="1120" width="389" height="40" as="geometry" />
        </mxCell>
        <mxCell id="iv2NXaq5prbsmtH-ulXJ-156" value="主播能干啥" style="rhombus;whiteSpace=wrap;html=1;shadow=0;fontFamily=Helvetica;fontSize=12;align=center;strokeWidth=1;spacing=6;spacingTop=-4;" vertex="1" parent="WIyWlLk6GJQsqaUBKTNV-1">
          <mxGeometry x="-60" y="1880" width="100" height="80" as="geometry" />
        </mxCell>
      </root>
    </mxGraphModel>
  </diagram>
</mxfile>
